<svg preserveAspectRatio="none" width="100%" height="100%" overflow="visible" style="display: block;" viewBox="0 0 1280 302" fill="none" xmlns="http://www.w3.org/2000/svg">
<g id="Vector">
<path d="M815.24 302C746.64 302 698.525 266.767 698.525 187.606V0H818.039L818.098 68.6364H902.419V143.221H818.098V178.455C818.098 189.894 818.575 214.145 858.115 214.145C871.454 214.145 882.887 211.4 902.419 204.994V285.985C872.883 297.424 840.012 302 815.24 302Z" fill="var(--fill-0, #FEFEFE)"/>
<path d="M0 302V0H116.148V111.74L183.156 0H320.944L219.341 138.92L320.944 302H190.75L116.148 178.18V302H0Z" fill="var(--fill-0, #FEFEFE)"/>
<path d="M419.66 295.868C361.627 295.868 320.944 264.574 320.944 209.953C320.944 156.469 362.225 125.175 433.421 125.175C466.924 125.175 493.249 131.434 510 142.244C504.018 105.83 471.71 92.7433 428.634 92.7433C403.507 92.7433 380.838 98.9909 358.702 106.957V17.1796C394.001 7.50704 425.643 0 473.505 0C584.785 0 660.767 44.9492 660.767 147.934L660.668 302H511.197V252.057C493.249 278.799 463.335 295.868 419.66 295.868Z" fill="var(--fill-0, #FEFEFE)"/>
<path d="M1038.89 295.868C980.86 295.868 940.177 264.574 940.177 209.953C940.177 156.469 981.458 125.175 1052.65 125.175C1086.16 125.175 1112.48 131.434 1129.23 142.244C1123.25 105.83 1090.94 92.7433 1047.87 92.7433C1022.74 92.7433 1000.07 98.9909 977.935 106.957V17.1796C1013.23 7.50704 1044.88 0 1092.74 0C1204.02 0 1280 44.9492 1280 147.934L1279.9 302H1130.43V252.057C1112.48 278.799 1082.57 295.868 1038.89 295.868Z" fill="var(--fill-0, #FEFEFE)"/>
</g>
</svg>
